<?xml version="1.0" encoding="utf-8"?>
<!-- Generator: Adobe Illustrator 16.0.4, SVG Export Plug-In . SVG Version: 6.00 Build 0)  -->
<!DOCTYPE svg PUBLIC "-//W3C//DTD SVG 1.1//EN" "http://www.w3.org/Graphics/SVG/1.1/DTD/svg11.dtd">
<svg version="1.1" id="Layer_1" xmlns="http://www.w3.org/2000/svg" xmlns:xlink="http://www.w3.org/1999/xlink" x="0px" y="0px"
	 width="433px" height="31px" viewBox="-35.481 -5 433 31" enable-background="new -35.481 -5 433 31" xml:space="preserve">
<path fill="#0A0B0B" d="M-35.481-2.427l1.447,0.035c0.587,0.012,0.988,0.13,1.222,0.377c0.235,0.234,0.435,0.552,0.564,0.917
	l9.089,26.737h1.647l6.326-20.47l6.867,20.47h1.646L0.582,1.912c0.552-1.74,1.094-2.857,1.658-3.352
	c0.564-0.493,1.469-0.834,2.74-0.999v-1.752H-5.157v1.752c1.529,0.141,2.505,0.307,2.963,0.482c0.659,0.305,0.988,0.882,0.988,1.716
	c0,0.247-0.023,0.481-0.082,0.741c-0.059,0.271-0.118,0.552-0.201,0.823l-4.95,16.685l-5.879-17.802
	c-0.118-0.399-0.201-0.693-0.259-0.905c-0.058-0.201-0.082-0.4-0.082-0.576c0-0.317,0.07-0.529,0.223-0.658
	c0.152-0.13,0.329-0.224,0.553-0.283c0.223-0.083,0.517-0.118,0.894-0.129c0.388-0.024,1.034-0.047,1.987-0.071v-1.775h-12.017
	v1.752l2.575,0.13c0.329,0.011,0.551,0.082,0.682,0.21c0.141,0.142,0.235,0.271,0.294,0.436l1.247,3.738l-5.032,15.887l-6.09-18.697
	c-0.083-0.247-0.142-0.411-0.165-0.517c-0.024-0.106-0.036-0.247-0.036-0.423c0-0.236,0.106-0.424,0.33-0.53
	c0.211-0.117,0.459-0.166,0.741-0.176c0.293-0.036,0.564-0.047,0.787-0.047c0.212,0,0.858,0,1.917,0v-1.764h-11.711V-2.427
	L-35.481-2.427z M7.424,25.028h13.71v-1.753c-0.4-0.012-0.929-0.023-1.6-0.047c-0.67-0.022-1.14-0.046-1.41-0.058
	c-0.541-0.082-0.953-0.247-1.2-0.472c-0.246-0.221-0.376-0.681-0.376-1.387V-0.428c0-0.87,0.188-1.399,0.552-1.6
	c0.365-0.188,1.071-0.317,2.117-0.352l2.022-0.047v-1.764H7.424v1.752C8.647-2.416,9.388-2.392,9.647-2.38
	c0.247,0.011,0.517,0.035,0.799,0.071c0.505,0.047,0.906,0.21,1.165,0.447c0.281,0.258,0.399,0.658,0.399,1.246v21.399
	c0,1.188-0.188,1.882-0.564,2.094c-0.388,0.212-1.729,0.341-4.022,0.375V25.028L7.424,25.028z M48.707,25.028l0.824-10.97
	l-1.799-0.084c-0.529,4.092-1.964,6.809-4.304,8.197c-1.34,0.776-3.352,1.152-6.056,1.152c-1.893,0-3.08-0.142-3.551-0.436
	c-0.481-0.305-0.705-0.986-0.705-2.092V-0.322c0-1.035,0.224-1.634,0.67-1.81c0.47-0.166,1.787-0.271,4.01-0.295v-1.764H23.98v1.752
	c2.116,0.07,3.398,0.177,3.856,0.33c0.459,0.153,0.706,0.741,0.729,1.775v21.481c0,0.576-0.081,1.036-0.247,1.331
	c-0.164,0.292-0.47,0.503-0.929,0.587c-0.165,0.023-0.399,0.069-0.669,0.083c-0.295,0-1.2,0.046-2.74,0.104v1.754h24.727V25.028z
	 M76.351,25.028l0.823-10.97l-1.798-0.084c-0.541,4.092-1.964,6.809-4.315,8.197c-1.341,0.776-3.351,1.152-6.044,1.152
	c-1.905,0-3.092-0.142-3.563-0.436c-0.47-0.305-0.704-0.986-0.704-2.092V-0.322c0-1.035,0.223-1.634,0.669-1.81
	c0.458-0.166,1.799-0.271,4.01-0.295v-1.764H51.612v1.752c2.116,0.07,3.397,0.177,3.856,0.33c0.459,0.153,0.706,0.741,0.729,1.775
	v21.481c0,0.576-0.083,1.036-0.236,1.331c-0.177,0.292-0.47,0.503-0.93,0.587c-0.176,0.023-0.411,0.069-0.682,0.083
	c-0.281,0-1.187,0.046-2.727,0.104v1.754h24.727V25.028z M79.502,25.028h13.699v-1.753c-0.4-0.012-0.94-0.023-1.611-0.047
	c-0.67-0.022-1.128-0.046-1.399-0.058c-0.541-0.082-0.952-0.247-1.2-0.472c-0.259-0.221-0.4-0.681-0.4-1.387V-0.428
	c0-0.87,0.2-1.399,0.564-1.6c0.377-0.188,1.082-0.317,2.128-0.352l2.01-0.047v-1.764H79.502v1.752
	c1.211,0.023,1.952,0.047,2.199,0.059c0.259,0.011,0.529,0.035,0.812,0.071c0.517,0.047,0.905,0.21,1.164,0.447
	c0.259,0.258,0.4,0.658,0.4,1.246v21.399c0,1.188-0.189,1.882-0.577,2.094c-0.388,0.212-1.717,0.341-3.998,0.375v1.754l0,0V25.028z
	 M109.603,1.594l-4.691,11.839h9.571L109.603,1.594z M110.003-4.755h1.705l11.205,26.703c0.247,0.564,0.694,0.94,1.341,1.105
	c0.399,0.117,1.128,0.187,2.163,0.21v1.754h-12.84v-1.754c0.977-0.012,1.74-0.035,2.316-0.081c0.576-0.048,0.976-0.082,1.2-0.153
	c0.223-0.037,0.423-0.117,0.576-0.247c0.177-0.141,0.247-0.365,0.247-0.682c0-0.141-0.023-0.283-0.059-0.436
	c-0.046-0.128-0.094-0.293-0.141-0.412l-2.352-5.691h-11.287c-0.177,0.449-0.376,0.942-0.576,1.483
	c-0.212,0.529-0.365,0.918-0.435,1.151l-0.377,1.082c-0.105,0.293-0.188,0.542-0.247,0.812c-0.047,0.26-0.083,0.539-0.083,0.856
	c0,0.933,0.353,1.544,1.036,1.824c0.693,0.283,1.751,0.458,3.186,0.528v1.753H95.623v-1.753c1.14-0.104,1.999-0.339,2.576-0.693
	c0.575-0.328,1.128-1.046,1.658-2.127l0.246-0.495L110.003-4.755z M128.428,25.028h11.688v-1.753
	c-2.034-0.093-3.364-0.517-3.951-1.257c-0.588-0.752-0.893-2.069-0.893-3.94V-2.145l10.076,27.173h1.563L156.4-2.04v21.717
	c0,0.707-0.012,1.258-0.012,1.658c-0.011,0.424-0.022,0.693-0.069,0.836c-0.083,0.412-0.588,0.717-1.493,0.869
	c-0.588,0.107-1.588,0.188-3.01,0.234v1.753h13.71v-1.753c-2.034-0.047-3.292-0.152-3.775-0.294
	c-0.492-0.151-0.751-0.551-0.787-1.233l-0.023-0.776V0.748c0-1.517,0.188-2.387,0.576-2.657c0.389-0.271,1.729-0.447,4.021-0.529
	v-1.752h-10.476l-7.714,21.953l-8.078-21.953h-10.677v1.752l2.763,0.047c0.601,0.012,1.047,0.13,1.353,0.364
	c0.317,0.236,0.482,0.612,0.495,1.105l0.082,0.953v17.518c0,2.366-0.458,3.952-1.364,4.729c-0.552,0.493-1.704,0.812-3.48,0.986
	L128.428,25.028L128.428,25.028z M168.806,13.999l0.318,11.381h1.493l1.834-2.89c0.953,0.868,2.174,1.609,3.656,2.223
	c1.518,0.621,3.27,0.926,5.291,0.926c2.917,0,5.269-0.822,7.104-2.468c1.821-1.658,2.727-3.739,2.727-6.255
	c0-2.293-0.612-4.151-1.834-5.562c-1.224-1.4-3.081-2.411-5.597-3.022l-5.903-1.481c-1.634-0.412-2.81-0.894-3.54-1.435
	c-1.199-0.917-1.787-2.092-1.787-3.528c0-1.163,0.506-2.245,1.505-3.279c1.012-1.024,2.552-1.553,4.597-1.553
	c2.623,0,4.716,0.941,6.267,2.81c1.541,1.87,2.577,3.962,3.094,6.279l1.798-0.071l-0.47-10.559h-1.48l-1.673,2.575
	c-0.657-0.658-1.538-1.257-2.667-1.846c-1.494-0.647-3.151-0.988-5.009-0.988c-2.704,0-4.903,0.823-6.584,2.469
	c-1.693,1.646-2.528,3.633-2.528,5.926c0,2.646,0.964,4.622,2.881,5.926c1.176,0.788,3.328,1.575,6.431,2.364l3.927,0.976
	c2.07,0.6,3.47,1.317,4.188,2.165c0.718,0.857,1.082,1.914,1.082,3.197c0,1.693-0.577,3.033-1.73,3.998
	c-1.127,0.986-2.867,1.482-5.184,1.482c-3.127,0-5.526-0.989-7.219-2.963c-1.682-1.979-2.739-4.259-3.187-6.855L168.806,13.999z
	 M196.272,12.494h10.359v-3.35h-10.359V12.494z M211.122,13.999l0.308,11.381h1.48l1.834-2.89c0.952,0.868,2.151,1.609,3.668,2.223
	c1.504,0.621,3.256,0.926,5.292,0.926c2.917,0,5.268-0.822,7.09-2.468c1.824-1.658,2.728-3.739,2.728-6.255
	c0-2.293-0.611-4.151-1.833-5.562c-1.212-1.4-3.093-2.411-5.598-3.022L220.2,6.851c-1.635-0.412-2.821-0.894-3.551-1.435
	c-1.198-0.917-1.785-2.092-1.785-3.528c0-1.163,0.516-2.245,1.514-3.279c1.012-1.024,2.529-1.553,4.599-1.553
	c2.622,0,4.714,0.941,6.254,2.81c1.565,1.87,2.588,3.962,3.107,6.279l1.809-0.071l-0.458-10.559h-1.495l-1.669,2.575
	c-0.646-0.658-1.527-1.257-2.657-1.846c-1.48-0.647-3.15-0.988-5.008-0.988c-2.719,0-4.904,0.823-6.585,2.469
	c-1.669,1.646-2.519,3.633-2.519,5.926c0,2.646,0.955,4.622,2.882,5.926c1.164,0.788,3.305,1.575,6.443,2.364l3.916,0.976
	c2.069,0.6,3.468,1.317,4.188,2.165c0.703,0.857,1.069,1.914,1.069,3.197c0,1.693-0.576,3.033-1.729,3.998
	c-1.15,0.986-2.879,1.482-5.186,1.482c-3.139,0-5.536-0.989-7.218-2.963c-1.67-1.979-2.74-4.259-3.2-6.855L211.122,13.999z
	 M242.575,18.103c1.401,3.822,3.952,5.739,7.727,5.739c3.833,0,6.431-1.905,7.817-5.726c0.754-2.048,1.119-4.773,1.119-8.163
	c0-3.233-0.461-5.902-1.377-7.983c-1.457-3.281-3.939-4.915-7.466-4.915c-3.386,0-5.915,1.646-7.562,4.915
	c-0.927,1.976-1.363,4.809-1.363,8.443C241.482,13.505,241.836,16.068,242.575,18.103z M260.931,0.054
	c2.516,2.939,3.786,6.326,3.786,10.147c0,3.869-1.246,7.313-3.716,10.347c-2.763,3.397-6.314,5.103-10.64,5.103
	c-3.87,0-7.233-1.492-10.055-4.455c-2.787-2.939-4.185-6.478-4.185-10.606c0-4.104,1.327-7.643,3.996-10.642
	c2.765-3.115,6.174-4.691,10.243-4.691C254.652-4.755,258.169-3.144,260.931,0.054z M265.14,25.028h12.146v-1.753
	c-1.846-0.152-3.058-0.434-3.632-0.858c-0.908-0.669-1.354-2.067-1.354-4.172V0.901l18.708,24.738h1.646V3.135l0.022-1.105
	c0.07-1.812,0.541-3.022,1.376-3.634c0.553-0.376,1.692-0.658,3.433-0.835v-1.752H285.74v1.752c1.424,0.106,2.445,0.318,3.08,0.647
	c1.047,0.588,1.589,1.646,1.634,3.174l0.049,1.741v14.451L273.911-4.179h-8.771v1.752c1.799,0.047,2.952,0.119,3.469,0.235
	c0.506,0.118,1.011,0.482,1.528,1.106v18.543c0,2.409-0.328,3.915-0.976,4.526c-0.659,0.622-1.986,1.058-4.021,1.292V25.028
	L265.14,25.028z M304.436,18.103c1.377,3.822,3.975,5.739,7.726,5.739c3.821,0,6.419-1.905,7.818-5.726
	c0.73-2.048,1.105-4.773,1.105-8.163c0-3.233-0.46-5.902-1.387-7.983c-1.446-3.281-3.916-4.915-7.432-4.915
	c-3.41,0-5.928,1.646-7.572,4.915c-0.918,1.976-1.376,4.809-1.376,8.443C303.33,13.505,303.694,16.068,304.436,18.103z
	 M322.789,0.054c2.529,2.939,3.788,6.326,3.788,10.147c0,3.869-1.247,7.313-3.705,10.347c-2.762,3.397-6.312,5.103-10.641,5.103
	c-3.88,0-7.23-1.492-10.041-4.455c-2.823-2.939-4.209-6.478-4.209-10.606c0-4.104,1.339-7.643,4.009-10.642
	c2.752-3.115,6.161-4.691,10.253-4.691C316.488-4.755,320.027-3.144,322.789,0.054z M327.152,25.028h11.687v-1.753
	c-2.045-0.093-3.374-0.517-3.951-1.257c-0.61-0.752-0.881-2.069-0.881-3.94V-2.145l10.065,27.173h1.575l9.478-27.068v21.717
	c0,0.707,0,1.258-0.012,1.658c0,0.424-0.023,0.693-0.07,0.836c-0.093,0.412-0.588,0.717-1.481,0.869
	c-0.588,0.107-1.588,0.188-3.011,0.234v1.753h13.699v-1.753c-2.024-0.047-3.282-0.152-3.764-0.294
	c-0.494-0.151-0.764-0.551-0.799-1.233l-0.013-0.776V0.748c0-1.517,0.2-2.387,0.588-2.657c0.377-0.271,1.717-0.447,3.999-0.529
	v-1.752h-10.499l-7.691,21.953l-8.078-21.953h-10.676v1.752l2.763,0.047c0.611,0.012,1.059,0.13,1.363,0.364
	c0.295,0.236,0.459,0.612,0.493,1.105l0.073,0.953v17.518c0,2.366-0.447,3.952-1.354,4.729c-0.54,0.493-1.705,0.812-3.468,0.986
	v1.754h-0.035V25.028z M380.711,1.594l-4.692,11.839h9.584L380.711,1.594z M381.11-4.755h1.705l11.193,26.703
	c0.246,0.564,0.671,0.94,1.342,1.105c0.422,0.117,1.129,0.187,2.187,0.21v1.754h-12.852v-1.754c0.977-0.012,1.738-0.035,2.315-0.081
	c0.565-0.048,0.964-0.082,1.199-0.153c0.225-0.037,0.411-0.117,0.577-0.247c0.165-0.141,0.258-0.365,0.258-0.682
	c0-0.141-0.023-0.283-0.081-0.436c-0.012-0.128-0.07-0.293-0.118-0.412l-2.351-5.691h-11.278c-0.175,0.449-0.375,0.942-0.588,1.483
	c-0.198,0.529-0.342,0.918-0.434,1.151l-0.388,1.082c-0.108,0.293-0.2,0.542-0.246,0.812c-0.072,0.26-0.084,0.539-0.084,0.856
	c0,0.933,0.354,1.544,1.046,1.824c0.693,0.283,1.753,0.458,3.199,0.528v1.753h-10.971v-1.753c1.128-0.104,1.998-0.339,2.575-0.693
	c0.587-0.328,1.14-1.046,1.646-2.127l0.247-0.495L381.11-4.755z"/>
</svg>
